<svg id="Group_3" data-name="Group 3" xmlns="http://www.w3.org/2000/svg" width="262" height="159.399" viewBox="0 0 262 159.399">
  <circle id="Ellipse_2" data-name="Ellipse 2" cx="2.748" cy="2.748" r="2.748" fill="#c4c4c4"/>
  <circle id="Ellipse_14" data-name="Ellipse 14" cx="2.748" cy="2.748" r="2.748" transform="translate(0 102.601)" fill="#c4c4c4"/>
  <circle id="Ellipse_8" data-name="Ellipse 8" cx="2.748" cy="2.748" r="2.748" transform="translate(0 51.301)" fill="#c4c4c4"/>
  <circle id="Ellipse_15" data-name="Ellipse 15" cx="2.748" cy="2.748" r="2.748" transform="translate(0 153.902)" fill="#c4c4c4"/>
  <circle id="Ellipse_4" data-name="Ellipse 4" cx="2.748" cy="2.748" r="2.748" transform="translate(102.601)" fill="#c4c4c4"/>
  <circle id="Ellipse_16" data-name="Ellipse 16" cx="2.748" cy="2.748" r="2.748" transform="translate(102.601 102.601)" fill="#c4c4c4"/>
  <circle id="Ellipse_9" data-name="Ellipse 9" cx="2.748" cy="2.748" r="2.748" transform="translate(102.601 51.301)" fill="#c4c4c4"/>
  <circle id="Ellipse_17" data-name="Ellipse 17" cx="2.748" cy="2.748" r="2.748" transform="translate(102.601 153.902)" fill="#c4c4c4"/>
  <circle id="Ellipse_6" data-name="Ellipse 6" cx="2.748" cy="2.748" r="2.748" transform="translate(205.203)" fill="#c4c4c4"/>
  <circle id="Ellipse_18" data-name="Ellipse 18" cx="2.748" cy="2.748" r="2.748" transform="translate(205.203 102.601)" fill="#c4c4c4"/>
  <circle id="Ellipse_10" data-name="Ellipse 10" cx="2.748" cy="2.748" r="2.748" transform="translate(205.203 51.301)" fill="#c4c4c4"/>
  <circle id="Ellipse_19" data-name="Ellipse 19" cx="2.748" cy="2.748" r="2.748" transform="translate(205.203 153.902)" fill="#c4c4c4"/>
  <circle id="Ellipse_3" data-name="Ellipse 3" cx="2.748" cy="2.748" r="2.748" transform="translate(51.301)" fill="#c4c4c4"/>
  <circle id="Ellipse_20" data-name="Ellipse 20" cx="2.748" cy="2.748" r="2.748" transform="translate(51.301 102.601)" fill="#c4c4c4"/>
  <circle id="Ellipse_11" data-name="Ellipse 11" cx="2.748" cy="2.748" r="2.748" transform="translate(51.301 51.301)" fill="#c4c4c4"/>
  <circle id="Ellipse_21" data-name="Ellipse 21" cx="2.748" cy="2.748" r="2.748" transform="translate(51.301 153.902)" fill="#c4c4c4"/>
  <circle id="Ellipse_5" data-name="Ellipse 5" cx="2.748" cy="2.748" r="2.748" transform="translate(153.902)" fill="#c4c4c4"/>
  <circle id="Ellipse_22" data-name="Ellipse 22" cx="2.748" cy="2.748" r="2.748" transform="translate(153.902 102.601)" fill="#c4c4c4"/>
  <circle id="Ellipse_12" data-name="Ellipse 12" cx="2.748" cy="2.748" r="2.748" transform="translate(153.902 51.301)" fill="#c4c4c4"/>
  <circle id="Ellipse_23" data-name="Ellipse 23" cx="2.748" cy="2.748" r="2.748" transform="translate(153.902 153.902)" fill="#c4c4c4"/>
  <circle id="Ellipse_7" data-name="Ellipse 7" cx="2.748" cy="2.748" r="2.748" transform="translate(256.503)" fill="#c4c4c4"/>
  <circle id="Ellipse_24" data-name="Ellipse 24" cx="2.748" cy="2.748" r="2.748" transform="translate(256.503 102.601)" fill="#c4c4c4"/>
  <circle id="Ellipse_13" data-name="Ellipse 13" cx="2.748" cy="2.748" r="2.748" transform="translate(256.503 51.301)" fill="#c4c4c4"/>
  <circle id="Ellipse_25" data-name="Ellipse 25" cx="2.748" cy="2.748" r="2.748" transform="translate(256.503 153.902)" fill="#c4c4c4"/>
</svg>
